<?xml version="1.0" encoding="utf-8"?>
<!-- Generator: Adobe Illustrator 23.0.3, SVG Export Plug-In . SVG Version: 6.00 Build 0)  -->
<svg version="1.1" id="Camada_1" xmlns="http://www.w3.org/2000/svg" xmlns:xlink="http://www.w3.org/1999/xlink" x="0px" y="0px"
	 viewBox="0 0 159.2 31.2" style="enable-background:new 0 0 159.2 31.2;" xml:space="preserve">
<style type="text/css">
	.st0{fill:#DB0D16;}
	.st1{fill:#FFFFFF;}
</style>
<g>
	<path class="st0" d="M0,0h31.2v14.2H0V0z M0,17h14.2v14.2H0V17z M17,17h14.2v14.2H17V17z"/>
	<path class="st1" d="M52.4,24.4h-3.5V17H42v7.4h-3.5V7.2H42v7h6.9v-7h3.5V24.4z M60.6,24.6c-1.9,0-3.4-0.6-4.6-1.7
		c-1.2-1.1-1.8-2.7-1.8-4.6V18c0-1.3,0.2-2.4,0.7-3.4s1.2-1.8,2.1-2.3c0.9-0.5,1.9-0.8,3.1-0.8c1.7,0,3.1,0.6,4.1,1.7
		c1,1.1,1.5,2.7,1.5,4.7v1.4h-8.1c0.1,0.8,0.4,1.5,1,2s1.3,0.8,2.1,0.8c1.3,0,2.3-0.5,3.1-1.4l1.7,1.9c-0.5,0.7-1.2,1.3-2.1,1.7
		C62.7,24.4,61.7,24.6,60.6,24.6z M60.3,14.1c-0.7,0-1.2,0.2-1.6,0.7c-0.4,0.5-0.7,1.1-0.8,2h4.8v-0.3c0-0.8-0.2-1.3-0.6-1.8
		C61.7,14.2,61,14.1,60.3,14.1z M73.9,24.6c-1.9,0-3.4-0.6-4.6-1.7s-1.8-2.7-1.8-4.6V18c0-1.3,0.2-2.4,0.7-3.4s1.2-1.8,2.1-2.3
		s1.9-0.8,3.1-0.8c1.7,0,3.1,0.6,4.1,1.7s1.5,2.7,1.5,4.7v1.4h-8c0.1,0.8,0.4,1.5,1,2s1.3,0.8,2.1,0.8c1.3,0,2.3-0.5,3.1-1.4
		l1.7,1.9c-0.5,0.7-1.2,1.3-2.1,1.7C76,24.4,75,24.6,73.9,24.6L73.9,24.6z M73.5,14.1c-0.7,0-1.2,0.2-1.6,0.7s-0.7,1.1-0.8,2h4.8
		v-0.3c0-0.8-0.2-1.3-0.6-1.8S74.3,14.1,73.5,14.1z M84.5,11.6l0.1,1.4c0.9-1.1,2.1-1.7,3.7-1.7s2.8,0.6,3.4,1.9
		c0.9-1.3,2.2-1.9,3.8-1.9c1.4,0,2.4,0.4,3.1,1.2s1,2,1,3.6v8.2h-3.4v-8.2c0-0.7-0.1-1.3-0.4-1.6S95,14,94.3,14
		c-1,0-1.7,0.5-2.1,1.5v8.8h-3.4v-8.1c0-0.7-0.1-1.3-0.4-1.6s-0.8-0.5-1.5-0.5c-1,0-1.7,0.4-2.1,1.2v9h-3.4V11.6
		C81.4,11.6,84.5,11.6,84.5,11.6z M113.8,18.1c0,2-0.4,3.6-1.3,4.8c-0.9,1.1-2.1,1.7-3.7,1.7c-1.4,0-2.5-0.5-3.3-1.6l-0.2,1.4h-3.1
		V6.3h3.4v6.5c0.8-0.9,1.8-1.4,3.1-1.4c1.6,0,2.8,0.6,3.7,1.7c0.9,1.1,1.3,2.8,1.3,4.8L113.8,18.1C113.7,18.1,113.8,18.1,113.8,18.1
		z M110.3,17.9c0-1.3-0.2-2.2-0.6-2.8s-1-0.9-1.8-0.9c-1.1,0-1.8,0.4-2.2,1.3v5c0.4,0.9,1.2,1.3,2.3,1.3c1.1,0,1.8-0.5,2.2-1.6
		C110.3,19.7,110.3,18.9,110.3,17.9z M115.3,17.9c0-1.3,0.2-2.4,0.7-3.4s1.2-1.8,2.1-2.3s2-0.8,3.2-0.8c1.7,0,3.1,0.5,4.2,1.6
		s1.7,2.5,1.8,4.3v0.9c0,2-0.5,3.5-1.6,4.7c-1.1,1.2-2.6,1.8-4.4,1.8s-3.3-0.6-4.4-1.8c-1.1-1.2-1.6-2.8-1.6-4.8
		C115.3,18.1,115.3,17.9,115.3,17.9z M118.7,18.1c0,1.2,0.2,2.1,0.7,2.8c0.5,0.6,1.1,1,2,1c0.8,0,1.5-0.3,1.9-1
		c0.5-0.6,0.7-1.7,0.7-3c0-1.2-0.2-2.1-0.7-2.8s-1.1-1-2-1c-0.8,0-1.5,0.3-1.9,1S118.7,16.8,118.7,18.1z M137.2,23.1
		c-0.8,1-2,1.5-3.5,1.5c-1.4,0-2.4-0.4-3.1-1.2c-0.7-0.8-1.1-1.9-1.1-3.5v-8.4h3.4v8.3c0,1.3,0.6,2,1.8,2s2-0.4,2.4-1.2v-9.1h3.4
		v12.8h-3.2L137.2,23.1L137.2,23.1z M154.2,19.8l1.7-8.1h3.3l-3.3,12.8H153l-2.4-8l-2.4,8h-2.8l-3.3-12.8h3.3l1.7,8.1l2.3-8.1h2.5
		L154.2,19.8z"/>
</g>
</svg>
